<svg xmlns="http://www.w3.org/2000/svg" width="72" height="18" fill="none"><path fill="#000" d="M18.923 6.264h7.284V7.62H23.34v7.644h-1.572V7.62h-2.856l.012-1.356Zm6.972 2.484h1.344v1.26h.024c.048-.18.132-.348.252-.516.12-.168.264-.324.444-.456.168-.144.36-.252.576-.336.204-.084.42-.132.636-.132.168 0 .288.012.348.012.06.012.132.024.192.024v1.38a2.428 2.428 0 0 0-.312-.048c-.108-.012-.204-.024-.312-.024-.24 0-.468.048-.684.144-.216.096-.396.24-.564.42-.156.192-.288.42-.384.696-.096.276-.144.6-.144.96v3.096h-1.44l.024-6.48Zm10.416 6.516h-1.416v-.912h-.024c-.18.336-.444.588-.792.792a2.09 2.09 0 0 1-1.068.3c-.852 0-1.476-.204-1.86-.636-.384-.42-.576-1.068-.576-1.92v-4.14h1.44v3.996c0 .576.108.984.336 1.212.216.24.528.36.924.36.3 0 .552-.048.756-.144.204-.096.372-.216.492-.372a1.46 1.46 0 0 0 .276-.564c.06-.216.084-.456.084-.708v-3.78h1.44v6.516h-.012Zm2.448-2.088c.048.42.204.708.48.888.276.168.612.252.996.252.132 0 .288-.012.456-.036a2.01 2.01 0 0 0 .48-.12.844.844 0 0 0 .372-.264.615.615 0 0 0 .132-.444.646.646 0 0 0-.204-.456 1.7 1.7 0 0 0-.48-.288 4.162 4.162 0 0 0-.672-.18c-.252-.048-.504-.108-.768-.168a8.297 8.297 0 0 1-.78-.216 2.235 2.235 0 0 1-.672-.348 1.497 1.497 0 0 1-.468-.552c-.12-.228-.18-.492-.18-.828 0-.36.084-.648.264-.888.168-.24.396-.432.66-.576.264-.144.564-.252.888-.312.324-.06.636-.084.924-.084.336 0 .66.036.96.108.3.072.588.18.828.348.252.156.456.372.612.624.168.252.264.564.312.924h-1.5c-.072-.348-.228-.576-.468-.696a1.933 1.933 0 0 0-.852-.18c-.096 0-.228.012-.36.024a2.12 2.12 0 0 0-.396.096.94.94 0 0 0-.312.204.48.48 0 0 0-.132.348c0 .18.06.312.18.42.12.108.276.192.48.276.192.072.42.132.672.18.252.048.516.108.78.168.264.06.516.132.768.216.252.084.48.192.672.348.192.144.36.324.48.54.12.216.18.492.18.804 0 .384-.084.708-.264.984-.18.264-.408.492-.684.66-.276.168-.6.288-.936.372-.348.072-.684.12-1.02.12-.408 0-.792-.048-1.14-.144a2.903 2.903 0 0 1-.912-.42 2.014 2.014 0 0 1-.6-.708 2.312 2.312 0 0 1-.24-1.008h1.452v.012h.012Zm4.74-4.428h1.092V6.78h1.44v1.956h1.296v1.068H46.03v3.48c0 .156.012.276.024.396a.832.832 0 0 0 .084.276c.048.072.12.132.204.168.096.036.216.06.384.06.096 0 .204 0 .3-.012s.204-.024.3-.048v1.116a6.182 6.182 0 0 1-.468.048c-.156.024-.3.024-.468.024-.384 0-.684-.036-.912-.108a1.31 1.31 0 0 1-.54-.312 1.116 1.116 0 0 1-.264-.516 4.096 4.096 0 0 1-.084-.72v-3.84h-1.092V8.724v.024Zm4.836 0h1.356v.888h.024c.204-.384.48-.648.84-.816a2.72 2.72 0 0 1 1.176-.252c.516 0 .96.084 1.344.276.384.18.696.42.948.744.252.312.444.684.564 1.104.12.42.192.876.192 1.344 0 .444-.06.864-.168 1.272a3.53 3.53 0 0 1-.516 1.092 2.553 2.553 0 0 1-.876.756c-.36.192-.768.288-1.248.288-.204 0-.42-.024-.624-.06a2.656 2.656 0 0 1-.6-.18 2.152 2.152 0 0 1-.528-.324 1.829 1.829 0 0 1-.408-.456h-.024v3.252h-1.44V8.748h-.012Zm5.028 3.264c0-.288-.036-.576-.12-.852a2.175 2.175 0 0 0-.348-.732 1.919 1.919 0 0 0-.564-.516 1.535 1.535 0 0 0-.78-.192c-.6 0-1.056.204-1.368.624-.3.42-.456.984-.456 1.68 0 .336.036.636.12.912.084.276.192.516.36.72.156.204.348.36.576.48.228.12.48.18.78.18.336 0 .6-.072.828-.204.228-.132.408-.312.564-.516.144-.216.252-.456.312-.732a4.12 4.12 0 0 0 .096-.852Zm2.532-5.748h1.44V7.62h-1.44V6.264Zm0 2.484h1.44v6.516h-1.44V8.748Zm2.724-2.484h1.44v9h-1.44v-9Zm5.832 9.18c-.516 0-.984-.084-1.392-.264a3.16 3.16 0 0 1-1.032-.708 3.083 3.083 0 0 1-.636-1.092 4.266 4.266 0 0 1-.228-1.38c0-.492.072-.948.228-1.368.144-.42.36-.78.636-1.092.276-.3.624-.54 1.032-.708a3.642 3.642 0 0 1 1.392-.264c.516 0 .984.084 1.392.264.408.168.744.408 1.032.708.276.3.492.672.636 1.092.144.42.228.876.228 1.368 0 .504-.072.96-.228 1.38-.156.42-.36.78-.636 1.092-.276.3-.624.54-1.032.708a3.598 3.598 0 0 1-1.392.264Zm0-1.14c.312 0 .6-.072.828-.204.24-.132.42-.312.576-.528.156-.216.264-.468.336-.732a3.291 3.291 0 0 0 0-1.668 2.151 2.151 0 0 0-.336-.732 1.823 1.823 0 0 0-.576-.516 1.693 1.693 0 0 0-.828-.204c-.312 0-.6.072-.828.204-.24.132-.42.312-.576.516a2.151 2.151 0 0 0-.336.732 3.269 3.269 0 0 0 0 1.668c.072.276.18.516.336.732.156.216.348.396.576.528.24.144.516.204.828.204Zm3.72-5.556h1.092V6.78h1.44v1.956h1.296v1.068h-1.296v3.48c0 .156.012.276.024.396a.832.832 0 0 0 .084.276c.048.072.12.132.204.168.096.036.216.06.384.06.096 0 .204 0 .3-.012s.204-.024.3-.048v1.116a6.182 6.182 0 0 1-.468.048c-.156.024-.3.024-.468.024-.384 0-.684-.036-.912-.108a1.31 1.31 0 0 1-.54-.312 1.115 1.115 0 0 1-.264-.516 4.096 4.096 0 0 1-.084-.72v-3.84H68.17V8.724v.024Z"/><path fill="#00B67A" d="M17.244 6.264h-6.588L8.628 0l-2.04 6.264L0 6.252l5.328 3.876-2.04 6.264 5.328-3.876 5.328 3.876-2.028-6.264 5.328-3.864Z"/><path fill="#005128" d="m12.372 11.544-.456-1.416-3.288 2.388 3.744-.972Z"/></svg>