<svg xmlns="http://www.w3.org/2000/svg" width="14" height="13" fill="none"><path fill="#F8B656" stroke="#F8B656" d="M7.253 10.456 7 10.307l-.253.149-3.394 1.987h-.001a.325.325 0 0 1-.362-.013.273.273 0 0 1-.118-.298l.9-3.751.072-.3-.236-.2L.606 5.355a.289.289 0 0 1 .183-.51H.79l3.951-.326.298-.024.12-.274L6.705.683V.681A.305.305 0 0 1 7 .5c.136 0 .245.068.294.181v.002L8.84 4.228l.12.274.298.024 3.95.326h.003a.289.289 0 0 1 .183.51L10.392 7.89l-.236.199.072.3.9 3.751a.273.273 0 0 1-.118.298.324.324 0 0 1-.362.013l-3.395-1.995Z"/></svg>